<svg xmlns="http://www.w3.org/2000/svg" viewBox="0 0 120 120" width="512" height="512" role="img" aria-label="KT Academy">
  <defs>
    <linearGradient id="ktnavy" x1="0" y1="0" x2="1" y2="1"><stop offset="0" stop-color="#1c3e80"/><stop offset="1" stop-color="#0a1830"/></linearGradient>
    <linearGradient id="ktgold" x1="0" y1="0" x2="0" y2="1"><stop offset="0" stop-color="#ffe6a3"/><stop offset="1" stop-color="#e0a52e"/></linearGradient>
    <linearGradient id="ktteal" x1="0" y1="0" x2="1" y2="1"><stop offset="0" stop-color="#7defdf"/><stop offset="1" stop-color="#1fc0af"/></linearGradient>
    <radialGradient id="ktsheen" cx="0.42" cy="0.32" r="0.75"><stop offset="0" stop-color="#fff" stop-opacity=".55"/><stop offset="0.55" stop-color="#fff" stop-opacity="0"/></radialGradient>
    <path id="ktleaf" d="M60 59 C 56 50 45 49 39 42 C 30 31 34 20 46 21 C 54 21.7 59 28 60 36 C 61 28 66 21.7 74 21 C 86 20 90 31 81 42 C 75 49 64 50 60 59 Z"/>
  </defs>
  <rect x="6" y="6" width="108" height="108" rx="29" fill="url(#ktnavy)"/>
  <rect x="6" y="6" width="108" height="108" rx="29" fill="none" stroke="#f1c14a" stroke-opacity=".55" stroke-width="1.5"/>
  <path d="M60 74 C 61.5 82 61 87 60 93" fill="none" stroke="#1bb9ac" stroke-width="5" stroke-linecap="round"/>
  <g transform="translate(60 60) scale(1.15) translate(-60 -60)">
    <g fill="url(#ktteal)" stroke="#14a99d" stroke-width="1" stroke-opacity=".4" stroke-linejoin="round">
      <use href="#ktleaf" transform="rotate(45 60 60)"/><use href="#ktleaf" transform="rotate(135 60 60)"/><use href="#ktleaf" transform="rotate(225 60 60)"/><use href="#ktleaf" transform="rotate(315 60 60)"/></g>
    <g fill="url(#ktsheen)"><use href="#ktleaf" transform="rotate(45 60 60)"/><use href="#ktleaf" transform="rotate(135 60 60)"/><use href="#ktleaf" transform="rotate(225 60 60)"/><use href="#ktleaf" transform="rotate(315 60 60)"/></g>
  </g>
  <circle cx="60" cy="60" r="22" fill="#0a1830"/>
  <circle cx="60" cy="60" r="22" fill="none" stroke="url(#ktgold)" stroke-width="1.6" stroke-opacity=".8"/>
  <text x="60" y="61" text-anchor="middle" dominant-baseline="central" font-family="'Segoe UI',Arial,sans-serif" font-weight="800" font-size="26" letter-spacing="-0.5" fill="url(#ktgold)">KT</text>
</svg>
